<svg xmlns="http://www.w3.org/2000/svg" xmlns:xlink="http://www.w3.org/1999/xlink" width="40" zoomAndPan="magnify" viewBox="0 0 30 30.000001" height="40" preserveAspectRatio="xMidYMid meet" version="1.2"><defs><clipPath id="2b3cad8be5"><path d="M 5.308594 2.4375 L 24.90625 2.4375 L 24.90625 22 L 5.308594 22 Z M 5.308594 2.4375 "/></clipPath></defs><g id="e6f1be8407"><g clip-rule="nonzero" clip-path="url(#2b3cad8be5)"><path style=" stroke:none;fill-rule:evenodd;fill:#ffffff;fill-opacity:1;" d="M 16.136719 21.808594 L 13.855469 21.808594 C 13.742188 21.808594 13.648438 21.726562 13.628906 21.625 L 13.21875 19.765625 C 12.378906 19.570312 11.574219 19.242188 10.835938 18.777344 L 9.234375 19.808594 C 9.144531 19.867188 9.03125 19.855469 8.953125 19.777344 L 7.339844 18.152344 C 7.261719 18.085938 7.25 17.960938 7.308594 17.871094 L 8.328125 16.269531 C 7.875 15.53125 7.535156 14.738281 7.339844 13.886719 L 5.492188 13.488281 C 5.378906 13.464844 5.308594 13.363281 5.308594 13.261719 L 5.308594 10.980469 C 5.308594 10.867188 5.378906 10.777344 5.492188 10.753906 L 7.339844 10.347656 C 7.535156 9.507812 7.875 8.699219 8.328125 7.964844 L 7.308594 6.363281 C 7.25 6.273438 7.261719 6.160156 7.339844 6.078125 L 8.953125 4.46875 C 9.03125 4.390625 9.144531 4.378906 9.234375 4.433594 L 10.835938 5.457031 C 11.574219 5 12.378906 4.660156 13.21875 4.46875 L 13.628906 2.617188 C 13.648438 2.515625 13.742188 2.4375 13.855469 2.4375 L 16.136719 2.4375 C 16.25 2.4375 16.339844 2.515625 16.363281 2.617188 L 16.757812 4.46875 C 17.609375 4.671875 18.417969 5 19.152344 5.464844 L 20.753906 4.433594 C 20.84375 4.378906 20.957031 4.390625 21.039062 4.46875 L 22.648438 6.078125 C 22.726562 6.160156 22.738281 6.273438 22.683594 6.363281 L 21.648438 7.964844 C 22.117188 8.699219 22.445312 9.507812 22.648438 10.347656 L 24.5 10.753906 C 24.601562 10.777344 24.679688 10.867188 24.679688 10.980469 L 24.679688 13.261719 C 24.679688 13.375 24.601562 13.464844 24.5 13.488281 L 22.648438 13.898438 C 22.445312 14.738281 22.117188 15.542969 21.648438 16.28125 L 22.683594 17.878906 C 22.738281 17.972656 22.726562 18.085938 22.648438 18.164062 L 21.039062 19.777344 C 20.957031 19.855469 20.84375 19.867188 20.753906 19.808594 L 19.152344 18.789062 C 18.417969 19.242188 17.609375 19.582031 16.757812 19.777344 L 16.363281 21.625 C 16.339844 21.726562 16.238281 21.808594 16.136719 21.808594 Z M 14.988281 17.664062 C 11.9375 17.664062 9.453125 15.179688 9.453125 12.117188 C 9.453125 9.0625 11.9375 6.578125 14.988281 6.578125 C 18.054688 6.578125 20.539062 9.0625 20.539062 12.117188 C 20.539062 15.179688 18.054688 17.664062 14.988281 17.664062 Z M 14.988281 17.664062 "/></g><path style=" stroke:none;fill-rule:evenodd;fill:#ffffff;fill-opacity:1;" d="M 11.8125 12.117188 L 13.027344 13.332031 C 13.308594 13.613281 13.105469 14.101562 12.695312 14.101562 C 12.582031 14.101562 12.46875 14.058594 12.378906 13.964844 L 10.859375 12.445312 C 10.675781 12.265625 10.675781 11.980469 10.859375 11.796875 L 12.378906 10.265625 C 12.492188 10.152344 12.652344 10.109375 12.808594 10.152344 C 13.152344 10.242188 13.277344 10.652344 13.027344 10.914062 Z M 18.167969 12.117188 L 16.964844 10.914062 C 16.851562 10.800781 16.792969 10.640625 16.839844 10.480469 C 16.929688 10.152344 17.347656 10.015625 17.597656 10.265625 L 19.132812 11.796875 C 19.3125 11.980469 19.3125 12.265625 19.132812 12.445312 L 17.597656 13.964844 C 17.519531 14.058594 17.40625 14.101562 17.28125 14.101562 C 16.882812 14.101562 16.679688 13.613281 16.964844 13.332031 Z M 18.167969 12.117188 "/><path style=" stroke:none;fill-rule:evenodd;fill:#ffffff;fill-opacity:1;" d="M 13.96875 14.339844 C 13.628906 14.339844 13.402344 13.964844 13.570312 13.660156 L 15.613281 10.121094 C 15.703125 9.984375 15.839844 9.890625 16.011719 9.890625 C 16.351562 9.902344 16.589844 10.265625 16.40625 10.574219 L 14.363281 14.113281 C 14.285156 14.25 14.125 14.339844 13.96875 14.339844 Z M 13.96875 14.339844 "/><g style="fill:#ffffff;fill-opacity:1;"><g transform="translate(6.6935, 26.512342)"><path style="stroke:none" d="M 1.625 0 L 1.625 -0.140625 L 1.203125 -0.140625 L 1.203125 -1.453125 L 1.546875 -1.453125 L 2.34375 0 L 3.234375 0 C 3.234375 -0.0703125 3.210938 -0.113281 3.171875 -0.125 C 3.148438 -0.132812 3.128906 -0.140625 3.109375 -0.140625 L 3 -0.140625 L 2.171875 -1.5 C 2.523438 -1.59375 2.75 -1.785156 2.84375 -2.078125 C 2.875 -2.160156 2.890625 -2.25 2.890625 -2.34375 C 2.890625 -2.601562 2.773438 -2.8125 2.546875 -2.96875 C 2.347656 -3.101562 2.113281 -3.171875 1.84375 -3.171875 L 0.140625 -3.171875 L 0.140625 -3.03125 L 0.5625 -3.03125 L 0.5625 -0.140625 L 0.140625 -0.140625 L 0.140625 0 Z M 1.578125 -3.03125 C 1.859375 -3.03125 2.050781 -2.894531 2.15625 -2.625 C 2.1875 -2.53125 2.203125 -2.429688 2.203125 -2.328125 C 2.203125 -2.046875 2.113281 -1.835938 1.9375 -1.703125 C 1.84375 -1.640625 1.734375 -1.609375 1.609375 -1.609375 L 1.203125 -1.609375 L 1.203125 -3.03125 Z M 1.578125 -3.03125 "/></g></g><g style="fill:#ffffff;fill-opacity:1;"><g transform="translate(9.825441, 26.512342)"><path style="stroke:none" d="M 3.359375 0 C 3.359375 -0.0820312 3.332031 -0.128906 3.28125 -0.140625 C 3.269531 -0.140625 3.25 -0.140625 3.21875 -0.140625 L 3.0625 -0.140625 L 1.828125 -3.171875 L 1.5 -3.171875 L 0.34375 -0.140625 L 0 -0.140625 L 0 0 L 0.953125 0 C 0.953125 -0.0820312 0.929688 -0.128906 0.890625 -0.140625 C 0.867188 -0.140625 0.847656 -0.140625 0.828125 -0.140625 L 0.546875 -0.140625 L 0.9375 -1.15625 L 2 -1.15625 L 2.390625 -0.140625 L 2.03125 -0.140625 L 2.03125 0 Z M 1.9375 -1.3125 L 1 -1.3125 L 1.46875 -2.546875 Z M 1.9375 -1.3125 "/></g></g><g style="fill:#ffffff;fill-opacity:1;"><g transform="translate(13.078956, 26.512342)"><path style="stroke:none" d=""/></g></g><g style="fill:#ffffff;fill-opacity:1;"><g transform="translate(14.001436, 26.512342)"><path style="stroke:none" d="M 2.296875 0 C 2.273438 -0.0820312 2.234375 -0.128906 2.171875 -0.140625 L 1.8125 -0.140625 L 1.8125 -3.03125 L 1.96875 -3.03125 C 2.21875 -3.03125 2.398438 -2.898438 2.515625 -2.640625 C 2.535156 -2.597656 2.550781 -2.550781 2.5625 -2.5 L 2.703125 -2.0625 L 2.84375 -2.0625 L 2.828125 -3.171875 L 0.140625 -3.171875 L 0.109375 -2.0625 L 0.265625 -2.0625 L 0.40625 -2.5 C 0.488281 -2.78125 0.625 -2.945312 0.8125 -3 C 0.863281 -3.019531 0.925781 -3.03125 1 -3.03125 L 1.15625 -3.03125 L 1.15625 -0.140625 L 0.65625 -0.140625 L 0.65625 0 Z M 2.296875 0 "/></g></g><g style="fill:#ffffff;fill-opacity:1;"><g transform="translate(16.863803, 26.512342)"><path style="stroke:none" d="M 1.328125 -2.203125 C 1.546875 -2.203125 1.675781 -2.070312 1.71875 -1.8125 C 1.726562 -1.75 1.734375 -1.691406 1.734375 -1.640625 C 1.734375 -1.472656 1.675781 -1.367188 1.5625 -1.328125 C 1.476562 -1.304688 1.363281 -1.296875 1.21875 -1.296875 L 0.8125 -1.3125 C 0.820312 -1.8125 0.953125 -2.101562 1.203125 -2.1875 C 1.242188 -2.195312 1.285156 -2.203125 1.328125 -2.203125 Z M 2.296875 -0.53125 L 2.171875 -0.578125 C 2.066406 -0.359375 1.90625 -0.210938 1.6875 -0.140625 C 1.613281 -0.109375 1.535156 -0.09375 1.453125 -0.09375 C 1.046875 -0.09375 0.832031 -0.445312 0.8125 -1.15625 L 1.34375 -1.15625 C 1.875 -1.144531 2.191406 -1.21875 2.296875 -1.375 C 2.328125 -1.4375 2.34375 -1.503906 2.34375 -1.578125 C 2.34375 -1.859375 2.203125 -2.066406 1.921875 -2.203125 C 1.742188 -2.285156 1.546875 -2.328125 1.328125 -2.328125 C 0.921875 -2.328125 0.613281 -2.179688 0.40625 -1.890625 C 0.25 -1.679688 0.171875 -1.429688 0.171875 -1.140625 C 0.171875 -0.660156 0.347656 -0.316406 0.703125 -0.109375 C 0.898438 -0.00390625 1.113281 0.046875 1.34375 0.046875 C 1.75 0.046875 2.039062 -0.09375 2.21875 -0.375 C 2.25 -0.425781 2.273438 -0.476562 2.296875 -0.53125 Z M 2.296875 -0.53125 "/></g></g><g style="fill:#ffffff;fill-opacity:1;"><g transform="translate(19.250447, 26.512342)"><path style="stroke:none" d="M 0.171875 -1.125 C 0.171875 -0.644531 0.351562 -0.300781 0.71875 -0.09375 C 0.90625 0 1.117188 0.046875 1.359375 0.046875 C 1.722656 0.046875 2.003906 -0.0664062 2.203125 -0.296875 C 2.265625 -0.367188 2.3125 -0.445312 2.34375 -0.53125 L 2.203125 -0.5625 C 2.085938 -0.332031 1.90625 -0.1875 1.65625 -0.125 C 1.582031 -0.101562 1.507812 -0.09375 1.4375 -0.09375 C 1.019531 -0.101562 0.8125 -0.445312 0.8125 -1.125 C 0.8125 -1.769531 0.953125 -2.125 1.234375 -2.1875 C 1.273438 -2.195312 1.316406 -2.203125 1.359375 -2.203125 C 1.523438 -2.203125 1.628906 -2.128906 1.671875 -1.984375 C 1.671875 -1.953125 1.675781 -1.90625 1.6875 -1.84375 C 1.707031 -1.6875 1.75 -1.585938 1.8125 -1.546875 C 1.863281 -1.515625 1.921875 -1.5 1.984375 -1.5 C 2.148438 -1.5 2.25 -1.5625 2.28125 -1.6875 C 2.289062 -1.707031 2.296875 -1.734375 2.296875 -1.765625 C 2.296875 -1.921875 2.195312 -2.054688 2 -2.171875 C 1.820312 -2.273438 1.609375 -2.328125 1.359375 -2.328125 C 0.960938 -2.328125 0.65625 -2.191406 0.4375 -1.921875 C 0.257812 -1.703125 0.171875 -1.4375 0.171875 -1.125 Z M 0.171875 -1.125 "/></g></g><g style="fill:#ffffff;fill-opacity:1;"><g transform="translate(21.510233, 26.512342)"><path style="stroke:none" d="M 1.21875 -0.140625 L 1.046875 -0.140625 L 1.046875 -1.359375 C 1.046875 -1.671875 1.144531 -1.882812 1.34375 -2 C 1.414062 -2.039062 1.488281 -2.0625 1.5625 -2.0625 C 1.757812 -2.0625 1.890625 -1.953125 1.953125 -1.734375 C 1.960938 -1.671875 1.96875 -1.601562 1.96875 -1.53125 L 1.96875 -0.421875 C 1.96875 -0.273438 1.941406 -0.1875 1.890625 -0.15625 C 1.847656 -0.144531 1.785156 -0.140625 1.703125 -0.140625 L 1.703125 0 L 2.875 0 C 2.875 -0.0703125 2.851562 -0.113281 2.8125 -0.125 C 2.789062 -0.132812 2.769531 -0.140625 2.75 -0.140625 L 2.546875 -0.140625 L 2.546875 -1.46875 C 2.546875 -1.882812 2.40625 -2.15625 2.125 -2.28125 C 2.03125 -2.3125 1.9375 -2.328125 1.84375 -2.328125 C 1.550781 -2.328125 1.320312 -2.222656 1.15625 -2.015625 C 1.113281 -1.953125 1.078125 -1.890625 1.046875 -1.828125 L 1.046875 -3.4375 L 0.125 -3.4375 L 0.125 -3.296875 L 0.46875 -3.296875 L 0.46875 -0.421875 C 0.46875 -0.265625 0.40625 -0.171875 0.28125 -0.140625 C 0.238281 -0.140625 0.1875 -0.140625 0.125 -0.140625 L 0.125 0 L 1.359375 0 C 1.359375 -0.0703125 1.332031 -0.113281 1.28125 -0.125 C 1.257812 -0.132812 1.238281 -0.140625 1.21875 -0.140625 Z M 1.21875 -0.140625 "/></g></g></g></svg>