<svg xmlns="http://www.w3.org/2000/svg" xmlns:xlink="http://www.w3.org/1999/xlink" width="500" zoomAndPan="magnify" viewBox="0 0 375 374.999991" height="500" preserveAspectRatio="xMidYMid meet" version="1.0"><defs><g/><clipPath id="f541a3abca"><path d="M 89.285156 62.585938 L 225.035156 62.585938 L 225.035156 212.585938 L 89.285156 212.585938 Z M 89.285156 62.585938 " clip-rule="nonzero"/></clipPath><clipPath id="5513d0ee20"><path d="M 132 65.585938 L 279.410156 65.585938 L 279.410156 214 L 132 214 Z M 132 65.585938 " clip-rule="nonzero"/></clipPath></defs><g clip-path="url(#f541a3abca)"><path fill="#ffffff" d="M 131.441406 130.402344 C 125.070312 129.996094 119.820312 135.246094 120.222656 141.617188 C 120.554688 146.867188 124.816406 151.128906 130.070312 151.460938 C 136.4375 151.863281 141.6875 146.613281 141.285156 140.246094 C 140.953125 134.996094 136.691406 130.734375 131.441406 130.402344 Z M 225.277344 206.148438 L 224.367188 212.527344 C 221.40625 212.527344 218.898438 212.300781 215.941406 212.074219 C 199.308594 210.933594 190.425781 206.605469 180.402344 192.484375 C 171.976562 180.863281 163.773438 166.515625 156.484375 154.898438 C 154.375 151.523438 152.605469 149.417969 150.164062 148.132812 C 148.691406 147.355469 148.277344 145.453125 149.320312 144.15625 C 149.816406 143.546875 150.289062 142.925781 150.746094 142.296875 C 152.914062 139.3125 155.902344 137.03125 159.296875 135.59375 C 161.558594 134.632812 163.558594 133.414062 165.371094 131.890625 C 174.253906 125.28125 177.898438 116.171875 177.898438 103.871094 C 177.898438 79.5 161.726562 70.613281 144.183594 70.613281 C 137.578125 70.613281 94.269531 70.492188 89.285156 70.347656 L 89.285156 62.640625 L 147.375 62.640625 C 164.003906 62.640625 175.164062 64.691406 183.820312 70.386719 C 193.160156 76.308594 199.308594 86.558594 199.308594 100.453125 C 199.308594 120.042969 186.78125 132.34375 169.925781 139.636719 C 174.023438 146.695312 183.820312 161.957031 190.652344 172.210938 C 199.082031 184.28125 203.410156 189.976562 208.648438 195.671875 C 214.800781 202.277344 220.039062 204.785156 225.277344 206.148438 " fill-opacity="1" fill-rule="nonzero"/></g><g clip-path="url(#5513d0ee20)"><path fill="#ffffff" d="M 250.191406 139.746094 C 249.394531 139.507812 248.628906 139.300781 247.832031 139.09375 C 248.214844 121.277344 248.597656 103.460938 248.980469 85.644531 C 249.070312 81.515625 249.160156 77.355469 249.246094 73.226562 C 249.277344 71.574219 249.304688 69.890625 248.6875 68.386719 C 248.066406 66.882812 246.621094 65.585938 244.96875 65.671875 C 242.789062 65.792969 241.488281 68.121094 240.605469 70.128906 C 234.96875 82.988281 229.335938 95.851562 223.703125 108.710938 C 220.191406 116.734375 216.089844 124.464844 211.992188 132.191406 C 210.101562 135.730469 208.304688 139.300781 206.445312 142.871094 C 198.449219 144.875 190.398438 146.792969 182.199219 146.941406 C 175.382812 147.058594 168.570312 146.117188 162.050781 144.167969 C 155.824219 142.3125 149.511719 137.53125 143.054688 137.03125 C 139.984375 136.792969 136.472656 138.625 136.089844 141.691406 C 135.882812 143.519531 136.828125 145.320312 138.183594 146.558594 C 140.898438 149.007812 144.792969 149.625 148.246094 150.363281 C 152.492188 151.277344 156.769531 151.925781 161.078125 152.3125 C 172.523438 153.34375 183.761719 152.339844 195.089844 150.863281 C 197.714844 150.511719 200.28125 150.007812 202.816406 149.449219 C 202.460938 150.070312 202.109375 150.71875 201.753906 151.308594 C 194.320312 163.785156 185.207031 175.203125 174.703125 185.230469 C 169.394531 190.304688 164.292969 195.9375 157.714844 199.390625 C 152.226562 202.25 142.699219 204.316406 138.714844 197.828125 C 136.003906 193.371094 139.777344 187.621094 142.609375 184.199219 C 146.179688 179.890625 150.605469 176.261719 155.53125 173.609375 C 156.976562 172.839844 158.6875 171.808594 158.6875 170.1875 C 158.777344 165.527344 147.742188 172.105469 146.148438 173.019531 C 142.550781 175.082031 139.1875 177.648438 136.59375 180.953125 C 131.546875 187.355469 130.160156 197.296875 135.472656 203.492188 C 139.484375 208.179688 146.386719 209.625 152.460938 208.445312 C 158.539062 207.265625 163.9375 203.875 168.894531 200.1875 C 185.355469 188.003906 198.746094 172.105469 209.867188 154.9375 C 211.636719 152.191406 213.316406 149.417969 214.96875 146.585938 C 219.335938 145.644531 223.789062 144.964844 228.421875 144.964844 C 230.25 144.964844 232.050781 145.082031 233.878906 145.320312 C 233.230469 156.351562 232.875 167.382812 233.113281 178.417969 C 233.257812 185.289062 233.613281 192.28125 236.03125 198.710938 C 238.449219 205.140625 243.257812 211.011719 249.808594 213.078125 C 257.773438 215.585938 266.828125 211.808594 272.109375 205.347656 C 277.390625 198.890625 279.335938 190.214844 279.304688 181.867188 C 279.21875 163.550781 268.332031 145.261719 250.191406 139.746094 Z M 218.746094 139.890625 C 226.003906 126.707031 232.199219 112.839844 237.890625 99.035156 C 236.5625 111.957031 235.265625 124.90625 234.320312 137.855469 C 229.128906 138.035156 223.878906 138.828125 218.746094 139.890625 Z M 260.160156 195.203125 C 258.390625 197.414062 255.589844 199.449219 252.90625 198.5625 C 251.460938 198.09375 250.398438 196.824219 249.777344 195.46875 C 249.160156 194.082031 248.953125 192.574219 248.777344 191.070312 C 247.066406 177.148438 247.269531 163.253906 247.59375 149.300781 C 253.054688 152.015625 257.800781 155.996094 261.136719 161.515625 C 267.152344 171.394531 267.683594 185.851562 260.160156 195.203125 Z M 260.160156 195.203125 " fill-opacity="1" fill-rule="nonzero"/></g><g fill="#ffffff" fill-opacity="1"><g transform="translate(115.23003, 235.284829)"><g><path d="M 18.453125 -14.03125 C 18.453125 -12.800781 18 -11.707031 17.09375 -10.75 C 16.1875 -9.800781 15.023438 -9.175781 13.609375 -8.875 L 19.046875 -2.46875 C 19.546875 -1.863281 20 -1.472656 20.40625 -1.296875 C 20.820312 -1.117188 21.488281 -0.984375 22.40625 -0.890625 L 22.40625 0 L 16.40625 0 L 9.328125 -8.40625 L 7.46875 -8.40625 L 7.46875 -3.671875 C 7.46875 -2.847656 7.570312 -2.242188 7.78125 -1.859375 C 7.988281 -1.472656 8.304688 -1.21875 8.734375 -1.09375 C 9.160156 -0.976562 9.796875 -0.910156 10.640625 -0.890625 L 10.640625 0 L 0.5 0 L 0.5 -0.890625 C 1.34375 -0.890625 1.972656 -0.953125 2.390625 -1.078125 C 2.816406 -1.203125 3.125 -1.457031 3.3125 -1.84375 C 3.507812 -2.238281 3.609375 -2.847656 3.609375 -3.671875 L 3.609375 -15.484375 C 3.609375 -16.429688 3.382812 -17.078125 2.9375 -17.421875 C 2.488281 -17.773438 1.828125 -17.953125 0.953125 -17.953125 L 0.5 -17.953125 L 0.5 -18.84375 L 11.703125 -18.84375 C 13.585938 -18.84375 15.179688 -18.445312 16.484375 -17.65625 C 17.796875 -16.875 18.453125 -15.664062 18.453125 -14.03125 Z M 7.46875 -17.03125 L 7.46875 -9.859375 L 9.859375 -9.859375 C 11.085938 -9.859375 12.097656 -10.207031 12.890625 -10.90625 C 13.679688 -11.601562 14.078125 -12.539062 14.078125 -13.71875 C 14.078125 -14.800781 13.703125 -15.679688 12.953125 -16.359375 C 12.210938 -17.046875 11.148438 -17.390625 9.765625 -17.390625 C 8.859375 -17.390625 8.09375 -17.269531 7.46875 -17.03125 Z M 7.46875 -17.03125 "/></g></g></g><g fill="#ffffff" fill-opacity="1"><g transform="translate(139.530891, 235.284829)"><g><path d="M 6.921875 -13.390625 C 7.847656 -13.390625 8.734375 -13.1875 9.578125 -12.78125 C 10.421875 -12.382812 11.097656 -11.796875 11.609375 -11.015625 C 12.117188 -10.242188 12.375 -9.328125 12.375 -8.265625 L 12.375 -7.5 L 3.8125 -7.5 C 3.90625 -5.96875 4.359375 -4.738281 5.171875 -3.8125 C 5.984375 -2.894531 6.984375 -2.4375 8.171875 -2.4375 C 8.921875 -2.4375 9.625 -2.648438 10.28125 -3.078125 C 10.945312 -3.503906 11.46875 -4.066406 11.84375 -4.765625 L 12.546875 -4.375 C 12.078125 -2.9375 11.328125 -1.757812 10.296875 -0.84375 C 9.273438 0.0703125 8.070312 0.53125 6.6875 0.53125 C 5.550781 0.53125 4.535156 0.238281 3.640625 -0.34375 C 2.742188 -0.9375 2.039062 -1.757812 1.53125 -2.8125 C 1.03125 -3.863281 0.78125 -5.070312 0.78125 -6.4375 C 0.78125 -8.007812 1.070312 -9.3125 1.65625 -10.34375 C 2.25 -11.382812 3.007812 -12.148438 3.9375 -12.640625 C 4.875 -13.140625 5.867188 -13.390625 6.921875 -13.390625 Z M 3.8125 -8.9375 L 8.734375 -8.9375 L 8.765625 -9.4375 C 8.765625 -10.238281 8.539062 -10.890625 8.09375 -11.390625 C 7.644531 -11.898438 7.082031 -12.15625 6.40625 -12.15625 C 5.738281 -12.15625 5.15625 -11.863281 4.65625 -11.28125 C 4.164062 -10.707031 3.882812 -9.925781 3.8125 -8.9375 Z M 3.8125 -8.9375 "/></g></g></g><g fill="#ffffff" fill-opacity="1"><g transform="translate(153.893108, 235.284829)"><g><path d="M 7.3125 -11.921875 C 6.800781 -11.921875 6.429688 -11.851562 6.203125 -11.71875 C 5.984375 -11.59375 5.875 -11.382812 5.875 -11.09375 C 5.875 -10.9375 5.898438 -10.757812 5.953125 -10.5625 C 6.015625 -10.375 6.164062 -10.007812 6.40625 -9.46875 L 8.734375 -4.140625 L 10.609375 -8.90625 C 10.847656 -9.539062 11.035156 -10.046875 11.171875 -10.421875 C 11.304688 -10.804688 11.375 -11.082031 11.375 -11.25 C 11.375 -11.507812 11.253906 -11.6875 11.015625 -11.78125 C 10.785156 -11.875 10.425781 -11.921875 9.9375 -11.921875 L 9.9375 -12.828125 L 14.359375 -12.828125 L 14.359375 -11.921875 C 13.835938 -11.828125 13.457031 -11.625 13.21875 -11.3125 C 12.976562 -11 12.675781 -10.351562 12.3125 -9.375 L 8.015625 2.46875 C 7.578125 3.601562 6.941406 4.515625 6.109375 5.203125 C 5.285156 5.898438 4.3125 6.25 3.1875 6.25 C 2.351562 6.25 1.691406 6.070312 1.203125 5.71875 C 0.710938 5.363281 0.46875 4.882812 0.46875 4.28125 C 0.46875 3.851562 0.613281 3.488281 0.90625 3.1875 C 1.195312 2.894531 1.554688 2.75 1.984375 2.75 C 2.265625 2.75 2.519531 2.789062 2.75 2.875 C 2.988281 2.957031 3.25 3.082031 3.53125 3.25 C 3.863281 3.414062 4.128906 3.539062 4.328125 3.625 C 4.535156 3.707031 4.765625 3.75 5.015625 3.75 C 5.390625 3.75 5.675781 3.644531 5.875 3.4375 C 6.082031 3.238281 6.304688 2.835938 6.546875 2.234375 L 7.3125 0.25 L 2.359375 -10.53125 C 2.179688 -10.882812 1.988281 -11.191406 1.78125 -11.453125 C 1.582031 -11.710938 1.304688 -11.867188 0.953125 -11.921875 L 0.953125 -12.828125 L 7.3125 -12.828125 Z M 7.3125 -11.921875 "/></g></g></g><g fill="#ffffff" fill-opacity="1"><g transform="translate(169.991099, 235.284829)"><g><path d="M 6.859375 -13.390625 C 8.535156 -13.390625 9.796875 -13.085938 10.640625 -12.484375 C 11.492188 -11.890625 11.921875 -11.144531 11.921875 -10.25 L 11.921875 -2.6875 C 11.921875 -1.957031 12.128906 -1.59375 12.546875 -1.59375 C 12.953125 -1.59375 13.410156 -1.921875 13.921875 -2.578125 L 14.390625 -1.9375 C 13.960938 -1.207031 13.40625 -0.613281 12.71875 -0.15625 C 12.039062 0.300781 11.367188 0.53125 10.703125 0.53125 C 10.023438 0.53125 9.488281 0.34375 9.09375 -0.03125 C 8.707031 -0.40625 8.515625 -0.890625 8.515625 -1.484375 C 8.515625 -1.628906 8.523438 -1.738281 8.546875 -1.8125 C 6.734375 -0.25 5.238281 0.53125 4.0625 0.53125 C 3.144531 0.53125 2.382812 0.210938 1.78125 -0.421875 C 1.1875 -1.054688 0.890625 -1.878906 0.890625 -2.890625 C 0.890625 -3.972656 1.25 -4.863281 1.96875 -5.5625 C 2.6875 -6.257812 3.914062 -6.894531 5.65625 -7.46875 L 8.546875 -8.421875 L 8.546875 -10.296875 C 8.546875 -11.046875 8.382812 -11.5625 8.0625 -11.84375 C 7.75 -12.125 7.253906 -12.265625 6.578125 -12.265625 C 5.253906 -12.265625 4.59375 -11.78125 4.59375 -10.8125 L 4.625 -10.390625 C 4.625 -9.960938 4.503906 -9.585938 4.265625 -9.265625 C 4.035156 -8.953125 3.675781 -8.796875 3.1875 -8.796875 C 2.78125 -8.796875 2.4375 -8.925781 2.15625 -9.1875 C 1.875 -9.445312 1.734375 -9.78125 1.734375 -10.1875 C 1.734375 -11.125 2.203125 -11.890625 3.140625 -12.484375 C 4.085938 -13.085938 5.328125 -13.390625 6.859375 -13.390625 Z M 4.09375 -3.96875 C 4.09375 -3.394531 4.265625 -2.898438 4.609375 -2.484375 C 4.953125 -2.078125 5.367188 -1.875 5.859375 -1.875 C 6.210938 -1.875 6.65625 -2.003906 7.1875 -2.265625 C 7.71875 -2.523438 8.171875 -2.84375 8.546875 -3.21875 L 8.546875 -7.25 C 8.367188 -7.195312 7.859375 -7.039062 7.015625 -6.78125 C 6.179688 -6.519531 5.484375 -6.144531 4.921875 -5.65625 C 4.367188 -5.164062 4.09375 -4.601562 4.09375 -3.96875 Z M 4.09375 -3.96875 "/></g></g></g><g fill="#ffffff" fill-opacity="1"><g transform="translate(186.089089, 235.284829)"><g><path d="M 5.828125 -13.390625 L 5.828125 -11.421875 C 7.265625 -12.734375 8.738281 -13.390625 10.25 -13.390625 C 11.457031 -13.390625 12.414062 -13.003906 13.125 -12.234375 C 13.84375 -11.472656 14.203125 -10.425781 14.203125 -9.09375 L 14.203125 -2.796875 C 14.203125 -2.222656 14.257812 -1.800781 14.375 -1.53125 C 14.5 -1.269531 14.679688 -1.101562 14.921875 -1.03125 C 15.160156 -0.957031 15.515625 -0.910156 15.984375 -0.890625 L 15.984375 0 L 9.078125 0 L 9.078125 -0.890625 C 9.535156 -0.910156 9.878906 -0.960938 10.109375 -1.046875 C 10.347656 -1.128906 10.523438 -1.300781 10.640625 -1.5625 C 10.753906 -1.820312 10.8125 -2.234375 10.8125 -2.796875 L 10.8125 -8.6875 C 10.8125 -10.34375 10.140625 -11.171875 8.796875 -11.171875 C 8.328125 -11.171875 7.832031 -11.050781 7.3125 -10.8125 C 6.789062 -10.582031 6.296875 -10.28125 5.828125 -9.90625 L 5.828125 -2.765625 C 5.828125 -2.191406 5.890625 -1.773438 6.015625 -1.515625 C 6.148438 -1.253906 6.34375 -1.085938 6.59375 -1.015625 C 6.84375 -0.953125 7.25 -0.910156 7.8125 -0.890625 L 7.8125 0 L 0.671875 0 L 0.671875 -0.890625 C 1.160156 -0.910156 1.519531 -0.957031 1.75 -1.03125 C 1.976562 -1.101562 2.148438 -1.269531 2.265625 -1.53125 C 2.378906 -1.800781 2.4375 -2.210938 2.4375 -2.765625 L 2.4375 -9.1875 C 2.4375 -9.832031 2.382812 -10.316406 2.28125 -10.640625 C 2.175781 -10.972656 2 -11.195312 1.75 -11.3125 C 1.5 -11.425781 1.140625 -11.484375 0.671875 -11.484375 L 0.671875 -12.375 L 4.640625 -13.390625 Z M 5.828125 -13.390625 "/></g></g></g><g fill="#ffffff" fill-opacity="1"><g transform="translate(203.978836, 235.284829)"><g/></g></g><g fill="#ffffff" fill-opacity="1"><g transform="translate(212.629831, 235.284829)"><g><path d="M 3.71875 -3.8125 L 10.8125 -19.1875 L 11.625 -19.1875 L 19.875 -2.765625 C 20.226562 -2.078125 20.570312 -1.601562 20.90625 -1.34375 C 21.25 -1.082031 21.800781 -0.929688 22.5625 -0.890625 L 22.5625 0 L 14 0 L 14 -0.890625 C 14.757812 -0.910156 15.285156 -0.988281 15.578125 -1.125 C 15.867188 -1.269531 16.015625 -1.519531 16.015625 -1.875 C 16.015625 -2.132812 15.945312 -2.410156 15.8125 -2.703125 C 15.6875 -3.003906 15.445312 -3.484375 15.09375 -4.140625 L 14.609375 -5.046875 L 5.9375 -5.046875 L 5.65625 -4.390625 C 5.445312 -3.984375 5.269531 -3.601562 5.125 -3.25 C 4.988281 -2.894531 4.921875 -2.613281 4.921875 -2.40625 C 4.921875 -1.976562 5.097656 -1.625 5.453125 -1.34375 C 5.804688 -1.0625 6.40625 -0.910156 7.25 -0.890625 L 7.25 0 L 0.46875 0 L 0.46875 -0.890625 C 1.164062 -0.910156 1.769531 -1.160156 2.28125 -1.640625 C 2.789062 -2.117188 3.269531 -2.84375 3.71875 -3.8125 Z M 13.828125 -6.546875 L 10.078125 -14 L 6.640625 -6.546875 Z M 13.828125 -6.546875 "/></g></g></g><g fill="#ffffff" fill-opacity="1"><g transform="translate(236.930695, 235.284829)"><g><path d="M 5.96875 -13.390625 L 5.96875 -10.46875 L 6.015625 -10.46875 C 6.429688 -11.40625 6.921875 -12.125 7.484375 -12.625 C 8.054688 -13.132812 8.679688 -13.390625 9.359375 -13.390625 C 9.929688 -13.390625 10.390625 -13.234375 10.734375 -12.921875 C 11.078125 -12.609375 11.25 -12.179688 11.25 -11.640625 C 11.25 -11.140625 11.117188 -10.734375 10.859375 -10.421875 C 10.597656 -10.117188 10.253906 -9.96875 9.828125 -9.96875 C 9.585938 -9.96875 9.378906 -10.015625 9.203125 -10.109375 C 9.023438 -10.203125 8.832031 -10.332031 8.625 -10.5 C 8.488281 -10.59375 8.347656 -10.679688 8.203125 -10.765625 C 8.054688 -10.847656 7.90625 -10.890625 7.75 -10.890625 C 7.476562 -10.890625 7.15625 -10.644531 6.78125 -10.15625 C 6.40625 -9.675781 6.132812 -9.222656 5.96875 -8.796875 L 5.96875 -2.75 C 5.96875 -2.21875 6.019531 -1.828125 6.125 -1.578125 C 6.238281 -1.328125 6.445312 -1.15625 6.75 -1.0625 C 7.0625 -0.96875 7.546875 -0.910156 8.203125 -0.890625 L 8.203125 0 L 0.609375 0 L 0.609375 -0.890625 C 1.171875 -0.910156 1.578125 -0.953125 1.828125 -1.015625 C 2.085938 -1.085938 2.273438 -1.253906 2.390625 -1.515625 C 2.515625 -1.773438 2.578125 -2.191406 2.578125 -2.765625 L 2.578125 -9.4375 C 2.578125 -10.875 2.164062 -11.59375 1.34375 -11.59375 C 1.25 -11.59375 1.117188 -11.566406 0.953125 -11.515625 L 0.953125 -12.40625 L 4.8125 -13.390625 Z M 5.96875 -13.390625 "/></g></g></g><g fill="#ffffff" fill-opacity="1"><g transform="translate(249.837111, 235.284829)"><g><path d="M 4.59375 -16.9375 L 5.4375 -16.9375 L 5.4375 -12.9375 L 9.234375 -12.9375 L 9.234375 -11.25 L 5.4375 -11.25 L 5.4375 -3.359375 C 5.4375 -2.816406 5.578125 -2.382812 5.859375 -2.0625 C 6.148438 -1.75 6.539062 -1.59375 7.03125 -1.59375 C 7.457031 -1.59375 7.828125 -1.710938 8.140625 -1.953125 C 8.460938 -2.203125 8.707031 -2.566406 8.875 -3.046875 L 9.515625 -3.046875 C 9.347656 -1.960938 8.894531 -1.09375 8.15625 -0.4375 C 7.425781 0.207031 6.519531 0.53125 5.4375 0.53125 C 4.351562 0.53125 3.515625 0.210938 2.921875 -0.421875 C 2.335938 -1.054688 2.046875 -1.867188 2.046875 -2.859375 L 2.046875 -11.25 L 1.0625 -11.25 L 1.0625 -12.15625 C 1.75 -12.582031 2.398438 -13.207031 3.015625 -14.03125 C 3.640625 -14.863281 4.164062 -15.832031 4.59375 -16.9375 Z M 4.59375 -16.9375 "/></g></g></g></svg>